<svg width="18" height="18" viewBox="0 0 18 18" fill="none" xmlns="http://www.w3.org/2000/svg">
<path d="M2.87514 3H6.24259L7.328 5.71352L5.58434 6.87596C5.37569 7.01506 5.25037 7.24924 5.25037 7.5C5.25227 7.57022 5.25037 7.50075 5.25037 7.50075L5.25037 7.50154L5.25037 7.50321L5.2504 7.507L5.25051 7.51625C5.25062 7.52316 5.25081 7.53156 5.25112 7.54139C5.25176 7.56105 5.25291 7.58647 5.25496 7.61727C5.25906 7.67884 5.2668 7.76208 5.28134 7.86388C5.31041 8.06735 5.36683 8.34608 5.47636 8.67467C5.69628 9.33445 6.12842 10.1887 6.97004 11.0303C7.81166 11.872 8.66592 12.3041 9.3257 12.524C9.65428 12.6335 9.93302 12.69 10.1365 12.719C10.2383 12.7336 10.3215 12.7413 10.3831 12.7454C10.4139 12.7475 10.4393 12.7486 10.459 12.7492C10.4688 12.7496 10.4772 12.7498 10.4841 12.7499L10.4934 12.75L10.4972 12.75L10.4988 12.75L10.4996 12.75C10.4996 12.75 10.5833 12.7454 10.5004 12.75C10.7844 12.75 11.0441 12.5895 11.1712 12.3354L11.6735 11.3309L15.0004 11.8853V15.1252C13.417 15.3542 9.14092 15.5799 5.7807 12.2197C2.42047 8.85945 2.64616 4.58332 2.87514 3ZM6.8056 7.86456L8.16005 6.9616C8.75025 6.56813 8.98416 5.81503 8.72072 5.15644L7.63531 2.44291C7.40751 1.87343 6.85595 1.5 6.24259 1.5H2.83595C2.15457 1.5 1.51318 1.97337 1.40132 2.71268C1.14684 4.39463 0.800457 9.36075 4.72004 13.2803C8.63962 17.1999 13.6057 16.8535 15.2877 16.599C16.027 16.4872 16.5004 15.8458 16.5004 15.1644V11.8853C16.5004 11.1521 15.9702 10.5263 15.247 10.4058L11.9201 9.85127C11.2705 9.74301 10.6263 10.0711 10.3318 10.66L10.0719 11.1798C9.99027 11.1597 9.89909 11.134 9.80004 11.101C9.33482 10.9459 8.68908 10.628 8.0307 9.96967C7.37232 9.31129 7.05445 8.66555 6.89938 8.20033C6.85748 8.07462 6.82731 7.96159 6.8056 7.86456Z" fill="#E2E2E2"/>
</svg>
