<svg width="18" height="18" viewBox="0 0 18 18" fill="none" xmlns="http://www.w3.org/2000/svg">
<path d="M2.25 3.75C2.25 2.92157 2.92157 2.25 3.75 2.25H6.75C7.57843 2.25 8.25 2.92157 8.25 3.75V6.75C8.25 7.57843 7.57843 8.25 6.75 8.25H3.75C2.92157 8.25 2.25 7.57843 2.25 6.75V3.75ZM6.75 3.75H3.75V6.75H6.75V3.75ZM9.75 3.75C9.75 2.92157 10.4216 2.25 11.25 2.25H14.25C15.0784 2.25 15.75 2.92157 15.75 3.75V6.75C15.75 7.57843 15.0784 8.25 14.25 8.25H11.25C10.4216 8.25 9.75 7.57843 9.75 6.75V3.75ZM14.25 3.75H11.25V6.75H14.25V3.75ZM2.25 11.25C2.25 10.4216 2.92157 9.75 3.75 9.75H6.75C7.57843 9.75 8.25 10.4216 8.25 11.25V14.25C8.25 15.0784 7.57843 15.75 6.75 15.75H3.75C2.92157 15.75 2.25 15.0784 2.25 14.25V11.25ZM6.75 11.25H3.75V14.25H6.75V11.25ZM9.75 11.25C9.75 10.4216 10.4216 9.75 11.25 9.75H14.25C15.0784 9.75 15.75 10.4216 15.75 11.25V14.25C15.75 15.0784 15.0784 15.75 14.25 15.75H11.25C10.4216 15.75 9.75 15.0784 9.75 14.25V11.25ZM14.25 11.25H11.25V14.25H14.25V11.25Z" fill="#E2E2E2"/>
</svg>
