<svg width="35" height="35" viewBox="0 0 35 35" fill="none" xmlns="http://www.w3.org/2000/svg">
<path fill-rule="evenodd" clip-rule="evenodd" d="M0 1.8949C0 2.94143 0.848376 3.78981 1.8949 3.78981H15.4788C13.753 5.75273 12.7065 8.32742 12.7065 11.1465L12.7067 11.2255L12.7065 11.258V32.6593C12.7065 33.7058 13.5548 34.5542 14.6014 34.5542C15.6479 34.5542 16.4963 33.7058 16.4963 32.6593V19.5207C18.4592 21.2465 21.0339 22.293 23.853 22.293C30.009 22.293 34.9995 17.3026 34.9995 11.1465C34.9995 4.99051 30.009 5.00679e-05 23.853 5.00679e-05C23.7211 5.00679e-05 23.5897 0.00234146 23.4589 0.0068866C23.4052 0.00232666 23.351 0 23.2962 0H1.8949C0.848378 0 0 0.848377 0 1.8949ZM23.853 18.5032C27.9159 18.5032 31.2096 15.2095 31.2096 11.1465C31.2096 7.08356 27.9159 3.78986 23.853 3.78986C19.79 3.78986 16.4963 7.08356 16.4963 11.1465C16.4963 15.2095 19.79 18.5032 23.853 18.5032Z" fill="#FFE600"/>
</svg>
