<svg width="160" height="35" viewBox="0 0 160 35" fill="none" xmlns="http://www.w3.org/2000/svg">
<path fill-rule="evenodd" clip-rule="evenodd" d="M0 1.8949C0 2.94143 0.848376 3.78981 1.8949 3.78981H15.4788C13.753 5.75273 12.7065 8.32742 12.7065 11.1465L12.7067 11.2255L12.7065 11.258V32.6593C12.7065 33.7058 13.5548 34.5542 14.6014 34.5542C15.6479 34.5542 16.4963 33.7058 16.4963 32.6593V19.5207C18.4592 21.2465 21.0339 22.293 23.853 22.293C30.009 22.293 34.9995 17.3026 34.9995 11.1465C34.9995 4.99051 30.009 5.00679e-05 23.853 5.00679e-05C23.7211 5.00679e-05 23.5897 0.00234146 23.4589 0.0068866C23.4052 0.00232666 23.351 0 23.2962 0H1.8949C0.848378 0 0 0.848377 0 1.8949ZM23.853 18.5032C27.9159 18.5032 31.2096 15.2095 31.2096 11.1465C31.2096 7.08356 27.9159 3.78986 23.853 3.78986C19.79 3.78986 16.4963 7.08356 16.4963 11.1465C16.4963 15.2095 19.79 18.5032 23.853 18.5032Z" fill="#FFE600"/>
<path d="M54.344 24V15.728H51.064V12.8H61.4V15.728H58.12V24H54.344ZM65.8368 16.96H70.8288V19.68H65.8368V16.96ZM66.0928 21.152H71.6928V24H62.3808V12.8H71.4848V15.648H66.0928V21.152ZM77.3224 24.256C76.3837 24.256 75.477 24.1493 74.6024 23.936C73.7277 23.7227 73.0077 23.4453 72.4424 23.104L73.6584 20.352C74.1917 20.6613 74.7837 20.912 75.4344 21.104C76.0957 21.2853 76.7357 21.376 77.3544 21.376C77.717 21.376 77.9997 21.3547 78.2024 21.312C78.4157 21.2587 78.5704 21.1893 78.6664 21.104C78.7624 21.008 78.8104 20.896 78.8104 20.768C78.8104 20.5653 78.6984 20.4053 78.4744 20.288C78.2504 20.1707 77.9517 20.0747 77.5784 20C77.2157 19.9147 76.8157 19.8293 76.3784 19.744C75.941 19.648 75.4984 19.5253 75.0504 19.376C74.613 19.2267 74.2077 19.0293 73.8344 18.784C73.4717 18.5387 73.1784 18.2187 72.9544 17.824C72.7304 17.4187 72.6184 16.9173 72.6184 16.32C72.6184 15.6267 72.8104 14.9973 73.1944 14.432C73.589 13.856 74.1704 13.3973 74.9384 13.056C75.717 12.7147 76.6824 12.544 77.8344 12.544C78.5917 12.544 79.3384 12.624 80.0744 12.784C80.8104 12.944 81.4717 13.1893 82.0584 13.52L80.9224 16.256C80.3677 15.9787 79.829 15.7707 79.3064 15.632C78.7944 15.4933 78.293 15.424 77.8024 15.424C77.4397 15.424 77.1517 15.456 76.9384 15.52C76.725 15.584 76.5704 15.6693 76.4744 15.776C76.389 15.8827 76.3464 16 76.3464 16.128C76.3464 16.32 76.4584 16.4747 76.6824 16.592C76.9064 16.6987 77.1997 16.7893 77.5624 16.864C77.9357 16.9387 78.341 17.0187 78.7784 17.104C79.2264 17.1893 79.669 17.3067 80.1064 17.456C80.5437 17.6053 80.9437 17.8027 81.3064 18.048C81.6797 18.2933 81.9784 18.6133 82.2024 19.008C82.4264 19.4027 82.5384 19.8933 82.5384 20.48C82.5384 21.1627 82.341 21.792 81.9464 22.368C81.5624 22.9333 80.9864 23.392 80.2184 23.744C79.4504 24.0853 78.485 24.256 77.3224 24.256ZM85.9378 24V15.728H82.6578V12.8H92.9938V15.728H89.7138V24H85.9378ZM93.9745 24V12.8H99.3665C100.412 12.8 101.313 12.9707 102.071 13.312C102.839 13.6533 103.431 14.144 103.847 14.784C104.263 15.4133 104.471 16.16 104.471 17.024C104.471 17.888 104.263 18.6347 103.847 19.264C103.431 19.8933 102.839 20.384 102.071 20.736C101.313 21.0773 100.412 21.248 99.3665 21.248H96.0705L97.7505 19.632V24H93.9745ZM97.7505 20.048L96.0705 18.336H99.1265C99.6492 18.336 100.033 18.2187 100.279 17.984C100.535 17.7493 100.663 17.4293 100.663 17.024C100.663 16.6187 100.535 16.2987 100.279 16.064C100.033 15.8293 99.6492 15.712 99.1265 15.712H96.0705L97.7505 14V20.048ZM105.709 24V12.8H111.101C112.146 12.8 113.048 12.9707 113.805 13.312C114.573 13.6533 115.165 14.144 115.581 14.784C115.997 15.4133 116.205 16.16 116.205 17.024C116.205 17.888 115.997 18.6347 115.581 19.264C115.165 19.8827 114.573 20.3573 113.805 20.688C113.048 21.0187 112.146 21.184 111.101 21.184H107.805L109.485 19.632V24H105.709ZM112.413 24L109.661 19.92H113.661L116.445 24H112.413ZM109.485 20.048L107.805 18.336H110.861C111.384 18.336 111.768 18.2187 112.013 17.984C112.269 17.7493 112.397 17.4293 112.397 17.024C112.397 16.6187 112.269 16.2987 112.013 16.064C111.768 15.8293 111.384 15.712 110.861 15.712H107.805L109.485 14V20.048ZM123.503 24.256C122.596 24.256 121.753 24.112 120.975 23.824C120.207 23.536 119.54 23.1307 118.975 22.608C118.409 22.0747 117.967 21.4507 117.647 20.736C117.337 20.0213 117.183 19.2427 117.183 18.4C117.183 17.5467 117.337 16.768 117.647 16.064C117.967 15.3493 118.409 14.7307 118.975 14.208C119.54 13.6747 120.207 13.264 120.975 12.976C121.753 12.688 122.596 12.544 123.503 12.544C124.42 12.544 125.263 12.688 126.031 12.976C126.799 13.264 127.465 13.6747 128.031 14.208C128.596 14.7307 129.033 15.3493 129.343 16.064C129.663 16.768 129.823 17.5467 129.823 18.4C129.823 19.2427 129.663 20.0213 129.343 20.736C129.033 21.4507 128.596 22.0747 128.031 22.608C127.465 23.1307 126.799 23.536 126.031 23.824C125.263 24.112 124.42 24.256 123.503 24.256ZM123.503 21.2C123.855 21.2 124.18 21.136 124.479 21.008C124.788 20.88 125.055 20.6987 125.279 20.464C125.513 20.2187 125.695 19.9253 125.823 19.584C125.951 19.232 126.015 18.8373 126.015 18.4C126.015 17.9627 125.951 17.5733 125.823 17.232C125.695 16.88 125.513 16.5867 125.279 16.352C125.055 16.1067 124.788 15.92 124.479 15.792C124.18 15.664 123.855 15.6 123.503 15.6C123.151 15.6 122.82 15.664 122.511 15.792C122.212 15.92 121.945 16.1067 121.711 16.352C121.487 16.5867 121.311 16.88 121.183 17.232C121.055 17.5733 120.991 17.9627 120.991 18.4C120.991 18.8373 121.055 19.232 121.183 19.584C121.311 19.9253 121.487 20.2187 121.711 20.464C121.945 20.6987 122.212 20.88 122.511 21.008C122.82 21.136 123.151 21.2 123.503 21.2ZM141.413 24.256C139.695 24.256 138.357 23.792 137.397 22.864C136.437 21.936 135.957 20.6347 135.957 18.96V12.8H139.733V18.848C139.733 19.7013 139.887 20.3093 140.197 20.672C140.506 21.024 140.922 21.2 141.445 21.2C141.978 21.2 142.394 21.024 142.693 20.672C143.002 20.3093 143.157 19.7013 143.157 18.848V12.8H146.869V18.96C146.869 20.6347 146.389 21.936 145.429 22.864C144.469 23.792 143.13 24.256 141.413 24.256ZM148.2 24V21.68L154.44 14.416L154.904 15.728H148.36V12.8H158.232V15.12L151.992 22.384L151.528 21.072H158.488V24H148.2Z" fill="#242424"/>
<path d="M132.713 24.16C132.116 24.16 131.615 23.968 131.209 23.584C130.804 23.1893 130.601 22.688 130.601 22.08C130.601 21.4613 130.804 20.9653 131.209 20.592C131.615 20.2187 132.116 20.032 132.713 20.032C133.311 20.032 133.812 20.2187 134.217 20.592C134.623 20.9653 134.825 21.4613 134.825 22.08C134.825 22.688 134.623 23.1893 134.217 23.584C133.812 23.968 133.311 24.16 132.713 24.16Z" fill="#FFE500"/>
</svg>
